<svg width="159" height="48" viewBox="0 0 159 48" fill="none" xmlns="http://www.w3.org/2000/svg">
<mask id="mask0_290_228" style="mask-type:luminance" maskUnits="userSpaceOnUse" x="62" y="12" width="95" height="30">
<path d="M156.43 12.5117H62.0986V41.6302H156.43V12.5117Z" fill="white"/>
</mask>
<g mask="url(#mask0_290_228)">
<path d="M62.5903 35.302L70.0285 18.3086H70.3925L77.8307 35.302H75.1011L73.2131 30.7977H65.7976L63.9551 35.302H62.5903ZM66.1616 29.8422H72.8264L69.5281 21.7209L66.1616 29.8422Z" fill="#A9884F"/>
<path d="M85.781 35.6894L78.3428 18.7188H81.0724L86.5771 32.2998L91.5359 18.7188H92.787L86.1904 35.6894H85.781Z" fill="#A9884F"/>
<path d="M93.2896 35.302L100.728 18.3086H101.092L108.53 35.302H105.8L103.912 30.7977H96.4968L94.6544 35.302H93.2896ZM96.8835 29.8422H103.548L100.227 21.7209L96.8835 29.8422Z" fill="#A9884F"/>
<path d="M123.668 35.5756H123.236L112.249 21.8353H112.158V35.2799H111.066V18.7188H112.909L122.463 30.7756H122.554V18.7188H123.668V35.5756Z" fill="#A9884F"/>
<path d="M126.31 35.3019V35.0517L135.886 20.0375C134.908 19.7645 133.998 19.6053 133.156 19.6053L127.993 20.3787L127.743 18.6953H139.457V18.9455L129.585 34.301L138.57 33.6185L138.82 35.3019H126.31Z" fill="#A9884F"/>
<path d="M140.472 35.302L147.91 18.3086H148.274L155.712 35.302H152.983L151.095 30.7977H143.656L141.814 35.302H140.472ZM144.043 29.8422H150.708L147.41 21.7209L144.043 29.8422Z" fill="#A9884F"/>
</g>
<path d="M65.7372 40.4004H64.8045V43.5397H64.3496V40.4004H63.417V40.0137H65.7144V40.4004H65.7372Z" fill="#A9884F"/>
<path d="M69.5888 41.9246H68.3377V43.1758H69.7935V43.5625H67.8828V40.0137H69.748V40.4004H68.315V41.5378H69.5661V41.9246H69.5888Z" fill="#A9884F"/>
<path d="M74.2156 42.4269C74.1929 42.8136 74.0792 43.0866 73.8972 43.2913C73.7152 43.4961 73.4195 43.5871 73.0783 43.5871C72.7144 43.5871 72.4414 43.4506 72.2367 43.1776C72.0319 42.9046 71.9182 42.5406 71.9182 42.0857V41.4487C71.9182 40.9937 72.0319 40.6297 72.2367 40.3567C72.4414 40.0838 72.7371 39.9473 73.1238 39.9473C73.465 39.9473 73.738 40.061 73.9199 40.2657C74.1019 40.4705 74.2156 40.7662 74.2156 41.153H73.7607C73.738 40.8572 73.6925 40.6525 73.5787 40.5387C73.4877 40.425 73.3285 40.3567 73.1238 40.3567C72.8736 40.3567 72.6916 40.4477 72.5779 40.6297C72.4414 40.8117 72.3731 41.0847 72.3731 41.4487V42.1084C72.3731 42.4724 72.4414 42.7454 72.5551 42.9274C72.6689 43.1094 72.8508 43.2003 73.0783 43.2003C73.3058 43.2003 73.465 43.1548 73.5787 43.0184C73.6925 42.9046 73.738 42.6999 73.7607 42.4041H74.2156V42.4269Z" fill="#A9884F"/>
<path d="M78.763 43.5397H78.3081L76.8978 40.8099V43.5397H76.4429V40.0137H76.8978L78.3081 42.7435V40.0137H78.7403V43.5397H78.763Z" fill="#A9884F"/>
<path d="M83.4594 42.0857C83.4594 42.5634 83.3457 42.9501 83.141 43.2003C82.9362 43.4506 82.6405 43.5871 82.2766 43.5871C81.9126 43.5871 81.6169 43.4506 81.4122 43.2003C81.2075 42.9501 81.0938 42.5861 81.0938 42.1312V41.4714C81.0938 40.9937 81.2075 40.6297 81.4122 40.3567C81.6169 40.0838 81.9126 39.9473 82.2766 39.9473C82.6405 39.9473 82.9362 40.0838 83.141 40.334C83.3457 40.5842 83.4594 40.9482 83.4594 41.4259V42.0857ZM83.0272 41.4714C83.0272 41.1075 82.959 40.8117 82.8453 40.6525C82.7315 40.4705 82.5495 40.3795 82.2766 40.3795C82.0264 40.3795 81.8444 40.4705 81.7307 40.6525C81.5942 40.8345 81.5487 41.1075 81.5487 41.4714V42.0857C81.5487 42.4496 81.6169 42.7226 81.7307 42.9046C81.8671 43.0866 82.0491 43.1776 82.2993 43.1776C82.5495 43.1776 82.7315 43.0866 82.8453 42.9274C82.959 42.7454 83.0272 42.4724 83.0272 42.1312V41.4714Z" fill="#A9884F"/>
<path d="M86.244 43.1758H87.6315V43.5625H85.8118V40.0137H86.2667V43.1758H86.244Z" fill="#A9884F"/>
<path d="M92.0876 42.0857C92.0876 42.5634 91.9739 42.9501 91.7691 43.2003C91.5644 43.4506 91.2687 43.5871 90.9048 43.5871C90.5408 43.5871 90.2451 43.4506 90.0404 43.2003C89.8357 42.9501 89.7219 42.5861 89.7219 42.1312V41.4714C89.7219 40.9937 89.8357 40.6297 90.0404 40.3567C90.2451 40.0838 90.5408 39.9473 90.9048 39.9473C91.2687 39.9473 91.5644 40.0838 91.7691 40.334C91.9739 40.5842 92.0876 40.9482 92.0876 41.4259V42.0857ZM91.6554 41.4714C91.6554 41.1075 91.5872 40.8117 91.4734 40.6525C91.3597 40.4705 91.1777 40.3795 90.9048 40.3795C90.6545 40.3795 90.4726 40.4705 90.3588 40.6525C90.2224 40.8345 90.1769 41.1075 90.1769 41.4714V42.0857C90.1769 42.4496 90.2451 42.7226 90.3588 42.9046C90.4953 43.0866 90.6773 43.1776 90.9275 43.1776C91.1777 43.1776 91.3597 43.0866 91.4734 42.9274C91.5872 42.7454 91.6554 42.4724 91.6554 42.1312V41.4714Z" fill="#A9884F"/>
<path d="M96.6238 43.1081L96.5556 43.1991C96.3281 43.4493 96.0097 43.5858 95.5775 43.5858C95.1908 43.5858 94.8951 43.4493 94.6676 43.1991C94.4629 42.9488 94.3492 42.5849 94.3264 42.1299V41.4474C94.3264 40.9469 94.4174 40.583 94.6221 40.3327C94.8268 40.0825 95.1226 39.9688 95.5092 39.9688C95.8505 39.9688 96.1007 40.0597 96.3054 40.2417C96.4874 40.4237 96.6011 40.6967 96.6238 41.0379H96.1689C96.1462 40.8105 96.1007 40.6512 95.9869 40.5147C95.8732 40.401 95.714 40.3327 95.5092 40.3327C95.259 40.3327 95.0771 40.4237 94.9406 40.583C94.8268 40.7422 94.7586 41.0152 94.7586 41.3792V42.1071C94.7586 42.4711 94.8268 42.7441 94.9633 42.9261C95.0998 43.1081 95.3045 43.1991 95.5547 43.1991C95.7822 43.1991 95.9642 43.1536 96.1007 43.0171L96.1689 42.9488V42.1299H95.532V41.7432H96.6238V43.1081Z" fill="#A9884F"/>
<path d="M99.4633 43.5414H99.0084V40.0153H99.4633V43.5414ZM99.4406 39.0371H99.9865L99.3268 39.7423H98.9629L99.4406 39.0371Z" fill="#A9884F"/>
<path d="M103.514 42.6298H102.331L102.058 43.5397H101.603L102.74 40.0137H103.127L104.264 43.5397H103.809L103.514 42.6298ZM102.445 42.2431H103.4L102.922 40.6506L102.445 42.2431Z" fill="#A9884F"/>
<path d="M109.611 43.5397H109.156V40.0137H109.611V43.5397Z" fill="#A9884F"/>
<path d="M114.344 43.5397H113.889L112.479 40.8099V43.5397H112.024V40.0137H112.479L113.889 42.7435V40.0137H114.322V43.5397H114.344Z" fill="#A9884F"/>
<path d="M117.335 40.0137L118.244 42.88L119.154 40.0137H119.723V43.5397H119.291V42.1748L119.336 40.8099L118.404 43.5625H118.062L117.153 40.8326L117.198 42.1976V43.5625H116.743V40.0137H117.335Z" fill="#A9884F"/>
<path d="M124.448 42.0857C124.448 42.5634 124.335 42.9501 124.13 43.2003C123.925 43.4506 123.63 43.5871 123.266 43.5871C122.902 43.5871 122.606 43.4506 122.401 43.2003C122.196 42.9501 122.083 42.5861 122.083 42.1312V41.4714C122.083 40.9937 122.196 40.6297 122.401 40.3567C122.606 40.0838 122.902 39.9473 123.266 39.9473C123.63 39.9473 123.925 40.0838 124.13 40.334C124.335 40.5842 124.448 40.9482 124.448 41.4259V42.0857ZM123.993 41.4714C123.993 41.1075 123.925 40.8117 123.812 40.6525C123.698 40.4705 123.516 40.3795 123.243 40.3795C122.993 40.3795 122.811 40.4705 122.697 40.6525C122.56 40.8345 122.515 41.1075 122.515 41.4714V42.0857C122.515 42.4496 122.583 42.7226 122.697 42.9046C122.833 43.0866 123.015 43.1776 123.266 43.1776C123.516 43.1776 123.698 43.0866 123.812 42.9274C123.925 42.7454 123.993 42.4724 123.993 42.1312V41.4714Z" fill="#A9884F"/>
<path d="M126.756 43.5397V40.0137H127.756C128.075 40.0137 128.325 40.0819 128.484 40.2412C128.644 40.4004 128.735 40.6279 128.735 40.9464C128.735 41.1056 128.689 41.2649 128.621 41.3786C128.53 41.5151 128.416 41.6061 128.28 41.6743C128.439 41.7198 128.575 41.8108 128.666 41.9701C128.757 42.1293 128.803 42.2886 128.803 42.516C128.803 42.8345 128.712 43.0848 128.553 43.2668C128.371 43.4487 128.143 43.5397 127.825 43.5397H126.756ZM127.211 41.9018V43.1758H127.825C127.984 43.1758 128.12 43.1303 128.234 43.0165C128.325 42.9028 128.371 42.7435 128.371 42.5388C128.371 42.1066 128.189 41.9018 127.825 41.9018H127.211ZM127.211 41.5151H127.779C127.938 41.5151 128.052 41.4696 128.143 41.3559C128.234 41.2421 128.28 41.1056 128.28 40.9464C128.28 40.7644 128.234 40.6051 128.143 40.5141C128.052 40.4231 127.916 40.3777 127.756 40.3777H127.188V41.5151H127.211Z" fill="#A9884F"/>
<path d="M131.587 43.5397H131.132V40.0137H131.587V43.5397Z" fill="#A9884F"/>
<path d="M134.455 43.1758H135.842V43.5625H134.022V40.0137H134.477V43.1758H134.455Z" fill="#A9884F"/>
<path d="M138.456 43.5397H138.001V40.0137H138.456V43.5397Z" fill="#A9884F"/>
<path d="M142.529 42.6298H141.346L141.073 43.5397H140.618L141.756 40.0137H142.142L143.28 43.5397H142.825L142.529 42.6298ZM141.46 42.2431H142.415L141.937 40.6506L141.46 42.2431Z" fill="#A9884F"/>
<path d="M146.451 42.1293H145.837V43.5625H145.382V40.0137H146.383C146.724 40.0137 146.997 40.1047 147.156 40.2867C147.338 40.4686 147.429 40.7416 147.429 41.0829C147.429 41.3104 147.384 41.4923 147.293 41.6516C147.202 41.8108 147.065 41.9246 146.883 42.0156L147.566 43.517V43.5397H147.088L146.451 42.1293ZM145.837 41.7426H146.383C146.565 41.7426 146.724 41.6743 146.838 41.5606C146.952 41.4468 146.997 41.2876 146.997 41.0829C146.997 40.6279 146.792 40.4004 146.383 40.4004H145.837V41.7426Z" fill="#A9884F"/>
<path d="M150.136 43.5397H149.681V40.0137H150.136V43.5397Z" fill="#A9884F"/>
<path d="M154.187 42.6298H153.004L152.731 43.5397H152.276L153.413 40.0137H153.8L154.937 43.5397H154.482L154.187 42.6298ZM153.118 42.2431H154.073L153.595 40.6506L153.118 42.2431Z" fill="#A9884F"/>
<path d="M32.1641 43.7684V39.9238L56.5714 42.4489V43.7684H32.1641Z" fill="#301F18"/>
<path d="M32.1639 39.9238L2.72961 42.6992V43.7684H32.1639V39.9238Z" fill="#A7864C"/>
<path d="M32.1641 37.991V34.1465L56.5714 39.9247V41.4943L32.1641 37.991Z" fill="#301F18"/>
<path d="M32.1639 34.1465L2.72961 40.3342V41.7218L32.1639 37.991V34.1465Z" fill="#A7864C"/>
<path d="M32.2322 32.0764V27.8906L56.6395 38.1276V39.2878L32.2322 32.0764Z" fill="#301F18"/>
<path d="M32.2322 27.8906L2.72961 38.2413V39.629L32.2322 32.0764V27.8906Z" fill="#A7864C"/>
<path d="M45.9712 11.9668L51.9991 18.4957V34.3971L45.9712 31.1213V11.9668Z" fill="#A5874D"/>
<path d="M37.6003 6.96094L41.672 11.3515V15.6737L37.6003 18.1306V6.96094Z" fill="#301F18"/>
<path d="M30.7537 11.1695L37.6004 6.96094V18.1306L30.7537 21.9297V11.1695Z" fill="#B29359"/>
<path d="M23.8613 4.04948V1.29688L29.457 6.80209V8.84948L23.8613 4.04948Z" fill="#301F18"/>
<path d="M23.8613 5.9375V8.48537L29.3888 12.8759V10.5328L23.8613 5.9375Z" fill="#301F18"/>
<path d="M23.8613 10.4648V13.1947L29.4798 16.9483V14.6961L23.8613 10.4648Z" fill="#301F18"/>
<path d="M23.8613 15.0605V17.6312L29.3888 20.7478V18.4729L23.8613 15.0605Z" fill="#301F18"/>
<path d="M23.8613 19.5176V22.0427L29.3888 24.5451V22.3612L23.8613 19.5176Z" fill="#301F18"/>
<path d="M23.8613 23.7734V26.1166L27.4553 27.2768L29.4798 26.7308V26.1393L23.8613 23.7734Z" fill="#301F18"/>
<path d="M14.1257 26.1393L19.6532 27.1858L23.8614 26.1166V23.7734L14.1257 26.1393Z" fill="#A5874D"/>
<path d="M23.8614 22.0427L12.5107 24.8863V22.8389L23.8614 19.5176V22.0427Z" fill="#A5874D"/>
<path d="M12.5107 19.3373V21.3392L23.8614 17.6312V15.0605L12.5107 19.3373Z" fill="#A5874D"/>
<path d="M12.5107 17.5625L23.8614 13.1037V10.4648L12.5107 15.5151V17.5625Z" fill="#A5874D"/>
<path d="M23.8614 5.9375V8.48537L12.5107 13.6948V11.6475L23.8614 5.9375Z" fill="#A5874D"/>
<path d="M12.5107 7.5983L23.8614 1.29688V4.04948L12.5107 9.82768V7.5983Z" fill="#A5874D"/>
<path d="M6.07336 28.095L10.5317 24.9102V33.9869L6.07336 35.9433V28.095Z" fill="#301F18"/>
</svg>
