<svg width="760" height="560" viewBox="0 0 760 560" fill="none" xmlns="http://www.w3.org/2000/svg">
  <rect width="760" height="560" rx="30" fill="#EBE8E4"/>
  <g opacity="0.95">
    <path d="M90 130L150 100L250 120L320 95L390 130L430 190L420 255L370 310L305 340L240 332L180 350L118 328L82 268L70 205L90 130Z" fill="#EEE8DA" stroke="#8B6B3E" stroke-width="3"/>
    <path d="M250 120L240 332" stroke="#8B6B3E" stroke-width="2"/>
    <path d="M150 100L180 350" stroke="#8B6B3E" stroke-width="2"/>
    <path d="M320 95L305 340" stroke="#8B6B3E" stroke-width="2"/>
    <path d="M90 130L390 130" stroke="#8B6B3E" stroke-width="2"/>
    <path d="M82 268L420 255" stroke="#8B6B3E" stroke-width="2"/>
    <path d="M118 328L370 310" stroke="#8B6B3E" stroke-width="2"/>
    <path d="M210 172L272 166L292 214L258 258L195 252L176 206L210 172Z" fill="#9F7A42" stroke="#7B5C2C" stroke-width="2"/>
  </g>

  <g transform="translate(178 92)">
    <ellipse cx="210" cy="380" rx="118" ry="24" fill="#000000" opacity="0.16"/>
    <rect x="82" y="28" width="256" height="410" rx="34" fill="#121212"/>
    <rect x="92" y="38" width="236" height="390" rx="28" fill="#F3EFE5"/>
    <rect x="178" y="38" width="62" height="10" rx="5" fill="#0F0F0F"/>
    <rect x="108" y="92" width="204" height="94" rx="12" fill="#EAE2D1"/>
    <rect x="108" y="198" width="204" height="120" rx="12" fill="#DCE9DA"/>
    <path d="M110 238C146 226 162 210 186 220C205 228 224 258 254 252C276 248 292 230 310 224V316H110V238Z" fill="#BBD9C4"/>
    <path d="M126 242L140 236L146 244L136 250L126 242Z" fill="#A46D53"/>
    <path d="M204 226L214 220L220 230L208 236L204 226Z" fill="#A46D53"/>
    <rect x="108" y="334" width="204" height="32" rx="8" fill="#B8935A"/>
    <rect x="108" y="374" width="204" height="32" rx="8" fill="#9C7345"/>
  </g>

  <g transform="translate(116 118)">
    <path d="M0 45C0 20.1472 20.1472 0 45 0C69.8528 0 90 20.1472 90 45C90 75 45 118 45 118C45 118 0 75 0 45Z" fill="#7A5A31"/>
    <circle cx="45" cy="44" r="22" fill="#E8DBC4"/>
    <path d="M35 42L45 33L55 42V54H35V42Z" fill="#7A5A31"/>
    <rect x="42" y="48" width="6" height="6" fill="#E8DBC4"/>
  </g>
</svg>
