<svg width="420" height="260" viewBox="0 0 420 260" fill="none" xmlns="http://www.w3.org/2000/svg">
  <rect width="420" height="260" fill="#0C87D8"/>
  <rect y="196" width="420" height="64" fill="#6E9A44"/>
  <rect x="0" y="214" width="420" height="46" fill="#80A956"/>

  <rect x="58" y="56" width="300" height="144" rx="3" fill="#EFEFEF"/>
  <rect x="70" y="68" width="276" height="120" fill="#FFFFFF"/>
  <rect x="176" y="76" width="58" height="58" fill="#1B5E8E"/>
  <rect x="238" y="76" width="90" height="58" fill="#1A4F79"/>
  <rect x="86" y="76" width="84" height="58" fill="#101820"/>
  <rect x="86" y="140" width="94" height="42" fill="#2A2A2A"/>
  <rect x="186" y="140" width="72" height="42" fill="#1A4F79"/>
  <rect x="264" y="140" width="64" height="42" fill="#0F3E60"/>

  <path d="M72 106C90 95 128 94 144 110C153 119 156 133 148 146C139 160 119 165 102 160C82 154 68 144 62 130C58 120 62 111 72 106Z" fill="#3D7A2A"/>
  <path d="M140 100C158 90 192 91 208 108C216 117 218 131 210 142C201 156 183 161 168 157C150 152 136 142 130 130C126 121 129 110 140 100Z" fill="#4C8A34"/>
  <path d="M306 96C321 88 347 89 359 102C365 110 366 122 359 132C351 143 337 147 324 144C309 141 297 133 293 123C290 116 294 104 306 96Z" fill="#477F30"/>

  <rect x="54" y="188" width="306" height="10" fill="#4A6F2E"/>
  <rect x="48" y="198" width="320" height="6" fill="#4A6F2E"/>
</svg>
