<svg width="220" height="160" viewBox="0 0 220 160" fill="none" xmlns="http://www.w3.org/2000/svg">
  <g stroke="#2F221D" stroke-width="4" stroke-linecap="round" stroke-linejoin="round">
    <path d="M34 112L72 104L84 142L46 150L34 112Z"/>
    <path d="M72 108L104 126"/>
    <path d="M104 126L126 118C130 116 134 118 136 121L138 124"/>
    <path d="M138 124L168 106"/>
    <path d="M126 44C126 30 137 19 151 19C165 19 176 30 176 44C176 58 165 69 151 69C137 69 126 58 126 44Z"/>
    <path d="M151 31V57"/>
    <path d="M145 35C146.3 32.8 148.3 31.7 151 31.7C154.2 31.7 156.6 33.2 157.5 35.7C158.4 38.2 157.4 40.8 154.6 42.1L148.5 45C146.1 46.1 145.3 48.2 146 50.1C146.8 52 148.8 53.2 151 53.2C154 53.2 156.4 52 157.6 50"/>
    <path d="M180 86L180 58"/>
    <path d="M198 86L198 50"/>
    <path d="M162 86L162 70"/>
    <path d="M144 86L144 76"/>
    <path d="M138 86H202"/>
    <path d="M164 38L202 14"/>
    <path d="M190 14H202V25"/>
  </g>
</svg>
